PathFileType	4	(X/Y/Z)	Patient4_TMGait_0pt2_02_right_25.trc.trc
DataRate	CameraRate	NumFrames	NumMarkers	Units	OrigDataRate	OrigDataStartFrame	OrigNumFrames
44.444444444444	44.444444444444	5	33	mm	44.444444444444	71	       141
Frame#	Time	R.Midfoot.Superior			Sacral			L.Shoulder			Chest			R.Shoulder			Neck			R.ASIS			L.ASIS			R.Thigh.Superior			R.Thigh.Lateral			R.Thigh.Inferior			R.Patella			L.Thigh.Superior			L.Thigh.Lateral			L.Thigh.Inferior			L.Patella			L.Shank.Superior			L.Shank.Lateral			L.Shank.Inferior			R.Shank.Superior			R.Shank.Lateral			R.Shank.Inferior			R.Heel			R.Midfoot.Lateral			R.Toe			L.Heel			L.Midfoot.Lateral			L.Midfoot.Superior			L.Toe			L.Elbow			L.Wrist			R.Elbow			R.Wrist			
		X1	Y1	Z1	X2	Y2	Z2	X3	Y3	Z3	X4	Y4	Z4	X5	Y5	Z5	X6	Y6	Z6	X7	Y7	Z7	X8	Y8	Z8	X9	Y9	Z9	X10	Y10	Z10	X11	Y11	Z11	X12	Y12	Z12	X13	Y13	Z13	X14	Y14	Z14	X15	Y15	Z15	X16	Y16	Z16	X17	Y17	Z17	X18	Y18	Z18	X19	Y19	Z19	X20	Y20	Z20	X21	Y21	Z21	X22	Y22	Z22	X23	Y23	Z23	X24	Y24	Z24	X25	Y25	Z25	X26	Y26	Z26	X27	Y27	Z27	X28	Y28	Z28	X29	Y29	Z29	X30	Y30	Z30	X31	Y31	Z31	X32	Y32	Z32	X33	Y33	Z33	

71	56.585000000000	1125.311738289693	95.646807770894	595.914208414257	998.643903039159	1006.934138336046	588.190407724245	1151.748046876862	1416.878885194237	360.100205250479	1289.994626764088	1341.890781523605	485.691242021307	1272.080670493022	1428.542421309267	669.338674775383	1199.500431601057	1482.670100296789	508.025112529454	1241.318847790753	926.937272084862	655.490590929388	1174.722339549855	953.748850308204	389.327660544352	1256.374523932760	722.683555838769	611.323225703729	1178.455227520422	614.288394582395	679.897078082765	1232.438103027172	562.340543379684	583.740317694752	1225.443104776984	470.165809104126	587.139677643950	1251.116032391096	764.661256061477	408.501552555943	1187.277862446150	640.171865489549	333.841652963434	1291.564189305112	577.813759318187	386.026184353133	1306.854637599814	509.438961788897	381.892596997514	1288.018782925544	438.043604254893	364.785545187609	1212.283581963862	319.074370702108	302.204414499143	1289.523632970465	208.786523245410	349.785980813603	1179.718550601570	385.622359583265	595.524832013564	1101.684096228222	291.909282266139	667.143567049376	1111.855671905034	196.777860471529	593.657126135378	949.807838149912	45.222483382205	576.865631503521	1039.640256380806	36.986746336852	642.525981885982	1246.266026636013	41.765911117941	611.949218064364	1184.447034733818	44.956862272219	375.812380113206	1258.665149768187	41.446068425230	296.340118167727	1341.116248469915	104.052884126002	321.520658880470	1468.359969784877	54.578224194588	293.701226963320	963.155502277175	1112.388195997474	310.111891319363	899.360000922583	865.167709622176	375.413213220364	1501.554449651982	1187.228163900737	737.184838566289	1648.771124352165	1324.606956827687	584.551803657676	
72	56.607500000000	1120.926181155723	95.698125213349	595.876987365839	999.578236694595	1006.368380356843	584.526681582088	1152.469097909620	1415.540253430358	355.188821653296	1290.944090755276	1341.124385208706	480.697271105477	1273.155475946634	1428.011115015530	664.309347260022	1200.299817934164	1481.897124961545	502.950059454094	1242.391682109295	926.393345816958	651.777792095521	1175.458019356086	952.430494321436	385.729360645259	1256.753342574299	721.808644564177	607.856159685359	1178.699277542487	613.732903417887	677.006460595411	1232.053362375409	561.300990528811	580.900877450407	1224.635217704199	468.841057650667	584.745701530291	1251.532146251582	762.631152380884	405.508696194307	1186.636567537211	638.390431853012	332.010337585679	1290.361108280987	575.436704998563	384.379831593583	1304.680237785505	506.887262767355	380.621424044457	1285.644964528698	435.499195669733	363.644760530390	1208.994661071976	316.739699808331	301.927346089851	1285.274894617107	206.195832409720	350.245738092116	1178.072419318946	384.697673661482	593.573544454713	1099.382773183156	291.999904279428	665.844104163096	1108.482553392933	196.430427962496	592.879372738649	945.368732429077	45.551349243028	576.948522945389	1035.196261551555	37.046578404327	642.520825173004	1241.799147974428	41.581874900910	611.978585635952	1178.993705864892	42.900246646743	376.936250192614	1252.997614075338	39.697529000656	297.143058844577	1335.477034021760	102.155448140404	322.499772148108	1462.825905527603	52.817703877087	294.124789013117	967.214101681948	1108.617619617085	304.423607174112	905.882448567150	860.487370561592	368.366051702885	1504.475454930934	1189.316128628719	730.270001911231	1641.776280269947	1330.867733189003	573.251022139416	
73	56.630000000000	1116.594826801884	95.784299936690	595.845143249770	1000.507097888127	1006.057939306133	580.551824703426	1153.353709380130	1414.462380618327	350.106322506570	1292.005087333861	1340.520694041165	475.560175970869	1274.342142999797	1427.634204217226	659.134222154390	1201.229765277122	1481.332758406336	497.731159466639	1243.434034350951	925.975294340972	647.713223959497	1176.198618153629	951.423825924893	381.772622840896	1256.995842226457	721.038598646539	604.144622964312	1178.764158373637	613.358770759766	673.913848861151	1231.493584596894	560.378428572300	577.894536059379	1223.665807784929	467.669246526206	582.249962012152	1252.142562828112	761.211458309977	402.189602896403	1186.460822075997	637.081700302293	329.778848626920	1289.696396872157	573.642010743113	382.303680309291	1303.217533874859	504.888319544090	378.956969512246	1283.895349294405	433.408241915979	362.219250488734	1206.255519958713	314.912652444928	301.290653266852	1281.363465463166	204.024048201332	350.448070714116	1176.284764619875	383.932692170723	591.536444986652	1096.966373791751	292.273818380021	664.471382313019	1105.086050616891	196.232800351406	592.077895835838	940.955156113812	46.032911560006	577.038611370986	1030.779973550641	37.184428259951	642.507912033227	1237.344561715821	41.364654916907	612.002388507572	1173.702512974659	41.252730073852	377.735852340869	1247.571440715575	38.300935828710	297.697393398648	1330.052534724204	100.656522003734	323.277223529803	1457.549295068003	51.458831027017	294.511907835101	971.699586756389	1105.119456659525	297.665358849303	913.369724394679	855.844974209351	359.413242031012	1506.992714840425	1191.031929886168	723.706990687159	1635.562126239333	1335.423710216811	562.897824603227	
74	56.652500000000	1112.323669339109	95.910693960304	595.820017153338	1001.402468971428	1006.049822243147	576.254773845450	1154.394560917992	1413.724924446712	344.923347108608	1293.166443112529	1340.126556676722	470.339223304669	1275.623594253253	1427.427345255635	653.870018296271	1202.289411725194	1481.019255201059	492.450714712368	1244.389373355557	925.720284213590	643.325007614553	1176.944335417480	950.778324024682	377.471618672277	1257.005782265249	720.402914816925	600.255326607015	1178.524326942795	613.217778552050	670.680207232917	1230.656139899419	559.612363629946	574.800949546515	1222.423095122769	466.707619786406	579.730838578235	1252.895064398743	760.420715486643	398.557969219580	1186.647682444666	636.238593554708	327.152321587083	1289.489017106605	572.429660159909	379.764890735281	1302.373865585452	503.450051789352	376.899448234074	1282.698560706780	431.789927867276	360.518357771719	1204.048338201434	313.606227743890	300.285882280464	1277.796069232765	202.316196575750	350.379984590677	1174.273464989179	383.377383672877	589.474506183028	1094.359098160136	292.761065362964	663.057001529690	1101.639182177127	196.220669871314	591.279414577275	936.572601674498	46.700580474476	577.132158961917	1026.393290853366	37.428069053443	642.488645680306	1232.901817276128	41.117175086401	612.021633881553	1168.645112034306	40.056271225214	378.209941338592	1242.446003003656	37.287556407583	297.999575529022	1324.914862710707	99.570091967893	323.827677384530	1452.572178670623	50.490209400747	294.822078976801	976.504643920403	1102.086293752112	289.924432281437	921.760217847945	851.462306900370	348.703340052813	1509.197275565687	1192.443785948396	717.464130754348	1630.328579044938	1338.610066526412	553.442130615709	
75	56.675000000000	1108.119028888091	96.082041967021	595.801094143235	1002.245182511081	1006.351325395222	571.625724282954	1155.593920918734	1413.365881943899	339.691594886668	1294.417471964422	1339.966375907491	465.092402523655	1276.957570407265	1427.392685777028	648.571988517335	1203.467605981739	1480.970225845030	487.173866329149	1245.215349415854	925.647105595007	638.661371489685	1177.714848967440	950.495243141454	372.861848179121	1256.738126933416	719.920822080405	596.257388923351	1177.918367057669	613.335206132719	667.360739717055	1229.507832147363	559.027141462850	571.691494721850	1220.866492085373	465.988251071185	577.250818624123	1253.723326012951	760.182074594885	394.651868311858	1187.061488955330	635.794552445294	324.167425139275	1289.599469480559	571.721670976581	376.805152289436	1301.987683084925	502.504864662237	374.500002869491	1281.910166173677	430.601378249551	358.581636823401	1202.268917497367	312.765044516304	298.958389378313	1274.513897729319	201.050183283863	350.066086474022	1172.015182614179	383.059979720961	587.436564961212	1091.533779156927	293.477959110109	661.625877269286	1098.138192945716	196.415597192308	590.504127496235	932.229186396728	47.589033709976	577.225451030841	1022.039144519897	37.806062730567	642.464997193534	1228.471748916535	40.842430795179	612.038158064404	1163.829282146671	39.287329705737	378.401758857442	1237.611832396702	36.635682482834	298.082403854556	1320.068378591909	98.856109468787	324.164144452015	1447.874959556336	49.851762081092	295.037777130891	981.547798261224	1099.644490688421	281.305486795117	930.998234774010	847.514739206614	336.440576658266	1511.146004092310	1193.602934374125	711.525639965898	1626.187242580163	1340.739722609443	544.840261375518	
